<svg width="1em" height="1em" viewBox="0 0 16 16" fill="none" xmlns="http://www.w3.org/2000/svg">
<path fill-rule="evenodd" clip-rule="evenodd" d="M13.9999 3.33398C14.1767 3.33398 14.3463 3.40422 14.4713 3.52925C14.5963 3.65427 14.6666 3.82384 14.6666 4.00065C14.6666 4.17746 14.5963 4.34703 14.4713 4.47206C14.3463 4.59708 14.1767 4.66732 13.9999 4.66732V12.6673C13.9999 12.8441 13.9297 13.0137 13.8047 13.1387C13.6796 13.2637 13.5101 13.334 13.3333 13.334C13.1564 13.334 12.9869 13.2637 12.8618 13.1387C12.7368 13.0137 12.6666 12.8441 12.6666 12.6673V11.334H10.3333C10.068 11.334 9.81368 11.2286 9.62614 11.0411C9.43861 10.8536 9.33325 10.5992 9.33325 10.334V7.33398H3.33325V12.6673C3.33325 12.8441 3.26301 13.0137 3.13799 13.1387C3.01297 13.2637 2.8434 13.334 2.66659 13.334C2.48977 13.334 2.3202 13.2637 2.19518 13.1387C2.07016 13.0137 1.99992 12.8441 1.99992 12.6673V4.66732C1.82311 4.66732 1.65354 4.59708 1.52851 4.47206C1.40349 4.34703 1.33325 4.17746 1.33325 4.00065C1.33325 3.82384 1.40349 3.65427 1.52851 3.52925C1.65354 3.40422 1.82311 3.33398 1.99992 3.33398H13.9999ZM12.6666 8.00065H10.6666V9.33398H12.6666V8.00065ZM12.6666 4.66732H10.6666V6.00065H12.6666V4.66732Z" fill="#909090"/>
</svg>
