<svg width="1em" height="1em" viewBox="0 0 24 24" fill="none" xmlns="http://www.w3.org/2000/svg">
<path d="M12 2C12.852 2 13.505 2.519 13.953 3.088C14.411 3.669 14.779 4.448 15.07 5.32C15.655 7.075 16 9.437 16 12C16 14.563 15.655 16.925 15.07 18.68C14.78 19.553 14.41 20.331 13.953 20.912C13.505 21.482 12.853 22 12 22C10.803 22 10 21.002 9.51401 20.077C8.98201 19.069 8.58101 17.704 8.32501 16.163C8.28178 15.9012 8.3443 15.633 8.49883 15.4173C8.65336 15.2017 8.88724 15.0562 9.14901 15.013C9.41077 14.9698 9.679 15.0323 9.89466 15.1868C10.1103 15.3414 10.2558 15.5752 10.299 15.837C10.534 17.259 10.888 18.395 11.283 19.145C11.481 19.521 11.666 19.755 11.813 19.885C12.007 20.055 12.147 19.955 12.282 19.798L12.382 19.674C12.642 19.344 12.921 18.804 13.172 18.048C13.673 16.546 14 14.408 14 12C14 9.592 13.673 7.454 13.173 5.952C12.921 5.196 12.643 4.656 12.383 4.326L12.287 4.21C12.142 4.046 11.991 3.948 11.79 4.136C11.627 4.288 11.427 4.558 11.22 4.98C11.0064 5.42645 10.8318 5.89051 10.698 6.367C10.9118 6.32819 11.1325 6.36009 11.3265 6.45787C11.5206 6.55565 11.6775 6.71399 11.7736 6.90892C11.8696 7.10385 11.8996 7.32477 11.8589 7.53823C11.8182 7.7517 11.709 7.94609 11.548 8.092L11.449 8.17L9.83201 9.302C9.62284 9.45872 9.3605 9.52705 9.10147 9.49226C8.84243 9.45747 8.60741 9.32235 8.44701 9.116L7.27101 7.433C7.13369 7.23689 7.07128 6.99802 7.09513 6.75981C7.11898 6.52159 7.2275 6.29984 7.40097 6.13484C7.57444 5.96985 7.80135 5.87256 8.04046 5.86066C8.27957 5.84876 8.51501 5.92304 8.70401 6.07C8.90501 5.328 9.14701 4.66 9.42501 4.096C9.69601 3.546 10.025 3.048 10.425 2.674C10.831 2.294 11.363 2 12 2ZM13 11V13H5.00001C4.74513 12.9997 4.49997 12.9021 4.31464 12.7272C4.1293 12.5522 4.01777 12.313 4.00283 12.0586C3.9879 11.8042 4.07068 11.5536 4.23427 11.3582C4.39786 11.1627 4.62991 11.0371 4.88301 11.007L5.00001 11H13ZM19 11H17V13H19C19.2652 13 19.5196 12.8946 19.7071 12.7071C19.8946 12.5196 20 12.2652 20 12C20 11.7348 19.8946 11.4804 19.7071 11.2929C19.5196 11.1054 19.2652 11 19 11Z" fill="#909090"/>
</svg>
