<svg width="40" height="40" viewBox="0 0 40 40" fill="none" xmlns="http://www.w3.org/2000/svg">
<circle cx="20" cy="20" r="19.5" fill="white" stroke="#909090"/>
<path d="M31.2237 19.0618L25.4737 15.123L24.4531 16.5605L28.895 19.5937H12.105L16.5469 16.5749L15.5262 15.1374L9.77625 19.0618C9.55308 19.2292 9.37195 19.4462 9.2472 19.6957C9.12244 19.9452 9.0575 20.2203 9.0575 20.4993C9.0575 20.7783 9.12244 21.0534 9.2472 21.3029C9.37195 21.5524 9.55308 21.7694 9.77625 21.9368L15.5262 25.8755L16.5469 24.438L12.105 21.3905H28.895L24.4531 24.4237L25.4737 25.8612L31.2237 21.9224C31.4442 21.7548 31.6229 21.5385 31.7459 21.2904C31.869 21.0422 31.933 20.769 31.933 20.4921C31.933 20.2152 31.869 19.942 31.7459 19.6939C31.6229 19.4457 31.4442 19.2294 31.2237 19.0618Z" fill="currentColor"/>
</svg>
