<svg width="1em" height="1em" viewBox="0 0 46 24" fill="none" xmlns="http://www.w3.org/2000/svg">
<path d="M24.75 9.93733V14.0613M28.45 6.84433V17.1543M32.15 3.23633V20.7623M35.85 7.13133V16.8673M39.55 9.56533V14.4333M43.25 10.9683V13.0303" stroke="currentColor" stroke-width="1.5" stroke-linecap="round" stroke-linejoin="round"/>
<path fill-rule="evenodd" clip-rule="evenodd" d="M14.537 3.39525C15.7 2.62825 17.25 3.46325 17.25 4.85625V19.1423C17.25 20.5363 15.7 21.3703 14.537 20.6033L8.537 16.6483C8.49641 16.6212 8.44879 16.6066 8.4 16.6063H5.5C4.77065 16.6063 4.07118 16.3165 3.55546 15.8008C3.03973 15.2851 2.75 14.5856 2.75 13.8563V10.1423C2.75 9.41291 3.03973 8.71343 3.55546 8.19771C4.07118 7.68198 4.77065 7.39225 5.5 7.39225H8.4C8.44902 7.39241 8.49701 7.37815 8.538 7.35125L14.537 3.39525ZM20.5 8.24925C20.6989 8.24925 20.8897 8.32827 21.0303 8.46892C21.171 8.60957 21.25 8.80034 21.25 8.99925V14.9993C21.25 15.1982 21.171 15.3889 21.0303 15.5296C20.8897 15.6702 20.6989 15.7493 20.5 15.7493C20.3011 15.7493 20.1103 15.6702 19.9697 15.5296C19.829 15.3889 19.75 15.1982 19.75 14.9993V8.99925C19.75 8.80034 19.829 8.60957 19.9697 8.46892C20.1103 8.32827 20.3011 8.24925 20.5 8.24925Z" fill="currentColor"/>
</svg>
